<svg id="Layer_1" data-name="Layer 1" xmlns="http://www.w3.org/2000/svg" viewBox="0 0 1024 973.68"><title>applications-icon</title><path d="M712.57,584.57c-54.42,29.43-125.79,45.63-201,45.63-71.74,0-139.79-15-191.62-42.23L60.89,451.84q-10.28-5.4-19.57-11.31C-25,496.57-11,572.56,80,620.38L339,756.51c97.8,51.39,256.32,49.7,354.07-3.17L946,616.58c89-48.12,102.74-124.16,36.7-178.89q-8.24,5.26-17.22,10.12Z" transform="translate(0 -25.16)"/><path d="M982.67,642.49q-8.25,5.25-17.22,10.12L712.57,789.37C658.15,818.8,586.78,835,511.58,835c-71.74,0-139.79-15-191.62-42.23L60.89,656.64q-10.26-5.4-19.57-11.31c-66.29,56-52.38,132,38.63,179.85L339,961.31c97.8,51.39,256.32,49.7,354.07-3.17L946,821.38C1035,773.26,1048.71,697.22,982.67,642.49Z" transform="translate(0 -25.16)"/><path d="M339,551.71,79.94,415.58C-24,361-27.37,269.57,74.49,213.16l263.61-146c103.31-57.21,271-55.69,370.71,2.65L957.16,215.18c93.72,54.85,87.88,143-11.19,196.6L693.08,548.54C595.32,601.41,436.81,603.1,339,551.71Z" transform="translate(0 -25.16)"/></svg>