<svg id="Layer_1" data-name="Layer 1" xmlns="http://www.w3.org/2000/svg" viewBox="0 0 883 559.62"><title>books-icon</title><path d="M562.69,790.37c54.14-26,207.15-84.85,370.81-15.82a14.43,14.43,0,0,0,20-13.33V282.79a14.44,14.44,0,0,0-8.42-13.13C761,185.37,587.65,266.78,549.68,287A14.45,14.45,0,0,0,542,299.71V777.35A14.44,14.44,0,0,0,562.69,790.37Z" transform="translate(-70.5 -232.19)"/><path d="M461.31,790.37c-54.14-26-207.15-84.85-370.81-15.82a14.43,14.43,0,0,1-20-13.33V282.79a14.44,14.44,0,0,1,8.42-13.13C263,185.37,436.35,266.78,474.32,287A14.45,14.45,0,0,1,482,299.71V777.35A14.44,14.44,0,0,1,461.31,790.37Z" transform="translate(-70.5 -232.19)"/></svg>