<svg id="Layer_1" data-name="Layer 1" xmlns="http://www.w3.org/2000/svg" viewBox="0 0 944.07 944.07"><defs><style>.cls-1,.cls-2{fill:none;stroke:#000;stroke-linecap:round;stroke-miterlimit:10;}.cls-1{stroke-width:40px;}.cls-2{stroke-width:50px;}</style></defs><title>bugs-icon</title><path d="M644.4,379.6h0a89,89,0,0,1,.22,125.65l-62.94-62.93Z" transform="translate(-57.47 -22.47)"/><path class="cls-1" d="M640,450.47S820.43,307,981.53,468.15" transform="translate(-57.47 -22.47)"/><path class="cls-2" d="M595.12,520.8l76.37,76.37a1,1,0,0,0,1.41,0l59.4-59.39a2.42,2.42,0,0,1,1.7-.62l100.12,9.1" transform="translate(-57.47 -22.47)"/><path class="cls-2" d="M588.05,626.87l39.74,39.74a1.74,1.74,0,0,1,.37,1.65l-33.84,95.13a1.74,1.74,0,0,0,.38,1.65l28.7,28.71" transform="translate(-57.47 -22.47)"/><path class="cls-2" d="M522.25,692.12,516,799.82a3,3,0,0,1-.76,1.71l-73.54,73.53a2.09,2.09,0,0,0-.51,1.69l13.24,64.78" transform="translate(-57.47 -22.47)"/><path d="M566.61,457.39l-34.42,34.42,12,12L262.05,786a150,150,0,0,0,199.43-11.33l211.19-211.2Z" transform="translate(-57.47 -22.47)"/><path d="M644.4,379.6h0a89,89,0,0,0-125.65-.22l62.93,62.94Z" transform="translate(-57.47 -22.47)"/><path class="cls-1" d="M573.53,384S717,203.57,555.85,42.47" transform="translate(-57.47 -22.47)"/><path class="cls-2" d="M503.2,428.88l-76.37-76.37a1,1,0,0,1,0-1.41l59.39-59.4a2.42,2.42,0,0,0,.62-1.7l-9.1-100.12" transform="translate(-57.47 -22.47)"/><path class="cls-2" d="M397.13,436l-39.74-39.74a1.74,1.74,0,0,0-1.65-.37l-95.13,33.84a1.74,1.74,0,0,1-1.65-.38l-28.71-28.7" transform="translate(-57.47 -22.47)"/><path class="cls-2" d="M331.88,501.75,224.18,508a3,3,0,0,0-1.71.76l-73.53,73.54a2.09,2.09,0,0,1-1.69.51L82.47,569.59" transform="translate(-57.47 -22.47)"/><path d="M566.61,457.39l-34.42,34.42-12-12L238,762a150,150,0,0,1,11.33-199.43l211.2-211.19Z" transform="translate(-57.47 -22.47)"/></svg>