<svg id="Layer_1" data-name="Layer 1" xmlns="http://www.w3.org/2000/svg" viewBox="0 0 1024.07 1024.07"><title>development-icon</title><path d="M492.05.38C227.17,10.53,13.86,221.91.65,486-14.82,795.11,228.89,1038.82,538,1023.35c264.08-13.21,475.46-226.52,485.61-491.4C1035.19,229.84,794.16-11.19,492.05.38ZM345.32,620.67,309.6,666.8a1.78,1.78,0,0,1-2.52.29l-155.38-126a1.77,1.77,0,0,1-.65-1.37V485.24a1.76,1.76,0,0,1,.66-1.38L309.45,356.91a1.76,1.76,0,0,1,2.53.32l33.88,45.61a1.77,1.77,0,0,1-.34,2.45L212.69,508.82a1.76,1.76,0,0,0-.68,1.4v4a1.76,1.76,0,0,0,.68,1.4L345,618.19A1.77,1.77,0,0,1,345.32,620.67Zm88.31,122.66L378.27,717a1.76,1.76,0,0,1-.83-2.38L592.35,281.48a1.76,1.76,0,0,1,2.34-.81L650.06,307a1.76,1.76,0,0,1,.82,2.38L436,742.52A1.78,1.78,0,0,1,433.63,743.33Zm280.31-76.56-33.87-45.61a1.77,1.77,0,0,1,.33-2.46L813.23,515.18a1.79,1.79,0,0,0,.69-1.4v-4a1.77,1.77,0,0,0-.69-1.4L680.92,405.81a1.76,1.76,0,0,1-.32-2.48l35.73-46.13a1.77,1.77,0,0,1,2.51-.29l155.38,126a1.78,1.78,0,0,1,.66,1.37v54.47a1.77,1.77,0,0,1-.67,1.38l-157.74,127A1.77,1.77,0,0,1,713.94,666.77Z" transform="translate(0.05 0.02)"/></svg>