<svg id="Layer_1" data-name="Layer 1" xmlns="http://www.w3.org/2000/svg" viewBox="0 0 496.82 1024"><title>devices-icon</title><circle cx="512" cy="959.7" r="29.7" transform="translate(-792.24 643.13) rotate(-45)"/><path d="M690.32,0H333.68a70.09,70.09,0,0,0-70.09,70.09V953.91A70.09,70.09,0,0,0,333.68,1024H690.32a70.09,70.09,0,0,0,70.09-70.09V70.09A70.09,70.09,0,0,0,690.32,0ZM456.62,59.08H568.46a7.53,7.53,0,0,1,0,15H456.62a7.53,7.53,0,1,1,0-15Zm-30.11,0A7.53,7.53,0,1,1,419,66.61,7.53,7.53,0,0,1,426.51,59.08ZM512,1004.33a44.63,44.63,0,1,1,44.63-44.63A44.63,44.63,0,0,1,512,1004.33ZM728.15,895.72H295.85V127.9h432.3Z" transform="translate(-263.59)"/></svg>