<svg xmlns="http://www.w3.org/2000/svg" viewBox="0 0 1024 507"><title>dock-icon</title><g id="Layer_1" data-name="Layer 1"><circle cx="512.5" cy="475.5" r="31.5"/></g><g id="Layer_2" data-name="Layer 2"><path d="M595.07,413a132.24,132.24,0,0,0-13.43-9.88L479.3,484.56,416.87,599.49A130.45,130.45,0,0,0,428.93,611a132.24,132.24,0,0,0,13.43,9.88L544.7,539.44l62.43-114.93A130.45,130.45,0,0,0,595.07,413Z" transform="translate(0 -320)"/><path d="M924,320H100.21A100.22,100.22,0,0,0,0,420.21V704H1024V420A100,100,0,0,0,924,320ZM611,595.07a129.27,129.27,0,0,1-168.64,25.81l-65.35,52,39.86-73.38A129.25,129.25,0,0,1,581.64,403.12l65.35-52-39.86,73.38A129.26,129.26,0,0,1,611,595.07Z" transform="translate(0 -320)"/></g></svg>