<svg id="Layer_1" data-name="Layer 1" xmlns="http://www.w3.org/2000/svg" viewBox="0 0 865.93 824.61"><title>domains-icon</title><path d="M487.43,69.82a34.5,34.5,0,0,1,48.62-.21L560.8,94l-.35.35L934.86,468.75a34.51,34.51,0,0,1,0,48.79h0a34.49,34.49,0,0,1-48.79,0l-350-349.95a34.49,34.49,0,0,0-48.81,0L138,517.51a34.51,34.51,0,0,1-48.79,0h0a34.51,34.51,0,0,1,0-48.79Z" transform="translate(-79.04 -59.69)"/><path d="M460,824.31H270.62a7.63,7.63,0,0,1-7.62-7.63V453.31h0v-.17a7.62,7.62,0,0,0-13-5.38l-44.75,44.82A7.62,7.62,0,0,0,203,498V876.68a7.63,7.63,0,0,0,7.62,7.63H460Z" transform="translate(-79.04 -59.69)"/><path d="M818.77,492.67,774,447.92a7.62,7.62,0,0,0-13,5.39h0V816.68a7.63,7.63,0,0,1-7.62,7.63H564v60H813.38a7.63,7.63,0,0,0,7.62-7.63V498.06A7.62,7.62,0,0,0,818.77,492.67Z" transform="translate(-79.04 -59.69)"/><path d="M572.29,540H451.72A36.76,36.76,0,0,0,415,576.71V832.29A36.76,36.76,0,0,0,451.72,869H460V585H564V869h8.29A36.75,36.75,0,0,0,609,832.29V576.71A36.75,36.75,0,0,0,572.29,540Z" transform="translate(-79.04 -59.69)"/></svg>