<svg id="Layer_1" data-name="Layer 1" xmlns="http://www.w3.org/2000/svg" viewBox="0 0 952 341.86"><title>fashion-icon</title><path d="M942.12,355.85c-23.49-16.77-45.78-20.87-46.64-21a658.41,658.41,0,0,0-106.9-11.64c-37.28-1-84.14,1.31-126.64,13.95l-.2-5.35c-1.29.07-128.86,7.42-144.26,7.42s-143.21-7.35-144.5-7.42l-.26,4.75c-36.13-11.5-80.56-16.63-132.87-15.25A686.62,686.62,0,0,0,131.25,333c-2,.34-23.71,4.68-47.54,21.31C61.11,370,36,400.21,36,454.37v24.87h0v-1c0,.44,2.65,45.59,24.84,90.15,20.52,41.19,62.54,90.3,146,90.3,59.29,0,113.55-36,148.63-66.21a447.84,447.84,0,0,0,62.07-65.61l2.33-2c1.85-2.19,41.77-46.93,43.08-104h1.5V398.8c2.35-7.82,11.62-12.65,18.78-14.43.21-.06,21.94-5.55,34.5-5.55,12.13,0,34.55,5.14,36.07,5.53,13.8,4.23,17.72,10,15.37,14.46v26.8h-.54c.9,57.12,39.76,100.64,41.57,102.8l1.46.75a417.78,417.78,0,0,0,61.53,67.07c34.66,30.2,88.4,66.7,147.69,66.7,83.41,0,124.39-49,144.07-90.17,21.29-44.56,22.92-90,22.94-90H988V454.37C988,401,963.89,371.35,942.12,355.85Zm-333,5.38c-15.11,10.33-25.79,22.83-31.94,37.28-.2-16.5-16.88-21.62-22.39-23.28l-.19-.06c-.91-.24-22.63-5.86-36.41-5.86s-35.5,5.61-36.36,5.84c-10.21,2.53-22.08,10-22.59,22.8-6.2-14.86-17.08-27.69-32.58-38.28a183.9,183.9,0,0,0-35.69-18.77c35.27,2,116.47,6.52,128.93,6.52s94.74-4.59,129.52-6.57A185.7,185.7,0,0,0,609.08,361.23Z" transform="translate(-36 -321.07)"/></svg>