<svg id="Layer_1" data-name="Layer 1" xmlns="http://www.w3.org/2000/svg" viewBox="0 0 1024 1024"><title>personal-effects-icon</title><ellipse cx="511.59" cy="421.17" rx="188.25" ry="219.44"/><path d="M704.78,638.39a47.51,47.51,0,0,0-63.07-2.11,217.29,217.29,0,0,1-42.23,27.38,196.94,196.94,0,0,1-175.78,0,217.71,217.71,0,0,1-42.23-27.37,47.55,47.55,0,0,0-63.16,2.19c-52.76,50.39-95.7,120.82-123.77,203.87a47.58,47.58,0,0,0,30.27,60.55c89.33,29.22,187.45,45.37,290.42,45.37,100.34,0,196.07-15.34,283.54-43.16,25.14-8,39.15-34.92,30.82-60C801.53,760.84,758.17,689.35,704.78,638.39Z"/><path d="M512,80A432.13,432.13,0,0,1,680.13,910.08,432.13,432.13,0,0,1,343.87,113.92,429.13,429.13,0,0,1,512,80m0-80C229.23,0,0,229.23,0,512s229.23,512,512,512,512-229.23,512-512S794.77,0,512,0Z"/></svg>