<svg id="Layer_1" data-name="Layer 1" xmlns="http://www.w3.org/2000/svg" viewBox="0 0 404.69 404.69"><title>shortcuts-icon</title><path d="M458.34,377A80,80,0,0,1,452,408.61a80.64,80.64,0,0,1-42.55,43.24A77,77,0,0,1,378,458.34a78.06,78.06,0,0,1-31.61-6.49,81.85,81.85,0,0,1-43.24-43.24,78.1,78.1,0,0,1-6.5-31.61V336.32H216.35V377a78.26,78.26,0,0,1-6.49,31.61,81.85,81.85,0,0,1-43.24,43.24,80.25,80.25,0,0,1-63.23,0,81.85,81.85,0,0,1-43.24-43.24A78.09,78.09,0,0,1,53.66,377a76.93,76.93,0,0,1,6.49-31.45A80.64,80.64,0,0,1,103.39,303,79.85,79.85,0,0,1,135,296.67h42V216H135a79.84,79.84,0,0,1-31.61-6.32,80.62,80.62,0,0,1-43.24-42.56,76.88,76.88,0,0,1-6.49-31.44,78.14,78.14,0,0,1,6.49-31.62A87.6,87.6,0,0,1,77.58,77.92a80.34,80.34,0,0,1,25.81-17.77,80.25,80.25,0,0,1,63.23,0,80.45,80.45,0,0,1,25.81,17.77,87.6,87.6,0,0,1,17.43,26.15,78.31,78.31,0,0,1,6.49,31.62V176h80.32V135.69a78.15,78.15,0,0,1,6.5-31.62A87.22,87.22,0,0,1,320.6,77.92a80.23,80.23,0,0,1,25.81-17.77A78.06,78.06,0,0,1,378,53.66a77,77,0,0,1,31.45,6.49,79,79,0,0,1,25.46,17.77A86.64,86.64,0,0,1,452,104.07a80.06,80.06,0,0,1,6.32,31.62,77.94,77.94,0,0,1-6.32,31.1,80.61,80.61,0,0,1-42.9,42.9A77.74,77.74,0,0,1,378,216H336.66v80.66H378a77.74,77.74,0,0,1,31.1,6.33A80.64,80.64,0,0,1,452,345.89,78,78,0,0,1,458.34,377ZM177,135.69a41,41,0,0,0-3.24-16.41,43,43,0,0,0-22.39-22.39,42.72,42.72,0,0,0-32.64,0A38.31,38.31,0,0,0,105.61,106a45.89,45.89,0,0,0-8.72,13.33,41,41,0,0,0-3.24,16.41,38.12,38.12,0,0,0,3.24,15.55,40.56,40.56,0,0,0,8.89,12.82,43.38,43.38,0,0,0,13.16,8.71A40,40,0,0,0,135,176h42Zm0,200.63H135a40.16,40.16,0,0,0-16.06,3.25,43.41,43.41,0,0,0-13.16,8.72,39.94,39.94,0,0,0-8.89,13A39.38,39.38,0,0,0,93.65,377a41.4,41.4,0,0,0,3.24,16.23,45,45,0,0,0,8.72,13.5,38,38,0,0,0,13.16,9.06,42.6,42.6,0,0,0,32.64,0,42.55,42.55,0,0,0,22.39-22.56A41.4,41.4,0,0,0,177,377ZM296.67,216H216.35v80.66h80.32Zm121.68-80.32a40.2,40.2,0,0,0-3.24-16.07,46.09,46.09,0,0,0-8.72-13.33,41.54,41.54,0,0,0-12.82-9.23A36.55,36.55,0,0,0,378,93.65a41.33,41.33,0,0,0-16.23,3.24A38.31,38.31,0,0,0,348.63,106a45.68,45.68,0,0,0-8.72,13.33,40.88,40.88,0,0,0-3.25,16.41V176H378a38,38,0,0,0,15.55-3.25,41.39,41.39,0,0,0,21.54-21.53A38.12,38.12,0,0,0,418.35,135.69Zm0,241.31a39.38,39.38,0,0,0-3.24-15.73,41.44,41.44,0,0,0-8.72-13,42,42,0,0,0-12.82-8.72A38.12,38.12,0,0,0,378,336.32H336.66V377a41.23,41.23,0,0,0,3.25,16.23,44.85,44.85,0,0,0,8.72,13.5,38,38,0,0,0,13.16,9.06A41.16,41.16,0,0,0,378,419a36.41,36.41,0,0,0,15.55-3.42,41.38,41.38,0,0,0,12.82-9.23,45.82,45.82,0,0,0,8.72-13.33A40.15,40.15,0,0,0,418.35,377Z" transform="translate(-53.66 -53.66)"/></svg>