<svg id="Layer_1" data-name="Layer 1" xmlns="http://www.w3.org/2000/svg" viewBox="0 0 766 711.83"><title>vim-icon</title><path id="path4932" d="M218.44,867.91h-10V231H188.81c-27,0-29.81-3.57-29.81-38,0-21.77,1-27.49,5.65-31.72,5.07-4.63,19.52-5.16,143-5.16H445.07l6.71,7.22c5.74,6.17,6.72,10.84,6.72,32.2,0,22.07-.83,25.76-7.15,31.75-5.24,5-11,6.78-21.61,6.78H415.27v272L538,384.41c67.5-67,128.93-128.15,136.5-136l13.76-14.3h-24.8c-21.94,0-25.58-.83-31.52-7.21s-6.71-10.79-6.71-34.12c0-24.27.67-27.38,6.86-31.76,6-4.22,24.94-4.86,144.64-4.86,161.5,0,148-3.33,148,36.53V217.8L745.42,403.67,566.12,589.55l-57,55.58-23.65,28c-12.69,15-62.93,64.45-108.78,112.56l-83.37,82.23H218.44Z" transform="translate(-159 -156.09)"/></svg>