<svg id="Layer_1" data-name="Layer 1" xmlns="http://www.w3.org/2000/svg" viewBox="0 0 417.39 417.39"><title>vsco-icon</title><path d="M256,47.3C140.93,47.3,47.3,140.92,47.3,256S140.93,464.7,256,464.7,464.7,371.08,464.7,256,371.08,47.3,256,47.3ZM377.92,183.45l41.5-28.13A190.83,190.83,0,0,1,445.81,227l-49.87,5.41A140.93,140.93,0,0,0,377.92,183.45ZM134.08,328.55l-41.5,28.13A190.83,190.83,0,0,1,66.19,285l49.87-5.41A140.93,140.93,0,0,0,134.08,328.55Zm14.2-136.32,41.45,28.43a74.95,74.95,0,0,0-1.49,67.76L145.59,315a125,125,0,0,1,2.69-122.78ZM256,314.43A58.43,58.43,0,1,1,314.43,256,58.49,58.49,0,0,1,256,314.43Zm8.35-133.08V131.07a125.11,125.11,0,0,1,89.91,47.4L312.8,206.91A75,75,0,0,0,264.35,181.35Zm0-67V64.19a190.73,190.73,0,0,1,74.13,18.45L315,126.94A140.92,140.92,0,0,0,264.35,114.34Zm-16.7,0a140.85,140.85,0,0,0-63.86,19.54l-28-41.58a190.83,190.83,0,0,1,91.88-28.11v50.15Zm0,16.73v50.28a75,75,0,0,0-48.45,25.56l-41.46-28.44A125.11,125.11,0,0,1,247.65,131.07Zm-50.54,171.5a75,75,0,0,0,50.54,28.08v50.28a125.2,125.2,0,0,1-93.2-51.76Zm50.54,95.09v50.15a190.73,190.73,0,0,1-74.13-18.45L197,385.06A140.92,140.92,0,0,0,247.65,397.66Zm16.7,0a140.85,140.85,0,0,0,63.86-19.54l28,41.58a190.83,190.83,0,0,1-91.88,28.11V397.66Zm0-16.73V330.65a75,75,0,0,0,50.54-28.08l42.66,26.6A125.17,125.17,0,0,1,264.35,380.93ZM366.41,315l-42.64-26.6a75,75,0,0,0-1.49-67.76l41.44-28.43A125,125,0,0,1,366.41,315ZM410,141.51l-41.51,28.13a143.1,143.1,0,0,0-38.8-34.86l23.48-44.29A193.47,193.47,0,0,1,410,141.51Zm-268.1-39.86,28,41.58a143,143,0,0,0-37,42.11L88.09,163A193.47,193.47,0,0,1,141.94,101.65ZM80.62,177.9l44.87,22.37A141.27,141.27,0,0,0,114.09,256q0,3.51.17,7l-49.85,5.41c-.26-4.1-.41-8.23-.41-12.39A190.78,190.78,0,0,1,80.62,177.9ZM102,370.49l41.51-28.13a143.1,143.1,0,0,0,38.8,34.86l-23.48,44.29A193.6,193.6,0,0,1,102,370.49Zm268.1,39.86-28-41.58a143,143,0,0,0,37-42.11L423.91,349A193.4,193.4,0,0,1,370.06,410.35Zm61.32-76.25-44.87-22.37A141.27,141.27,0,0,0,397.91,256q0-3.51-.17-7l49.85-5.41c.26,4.1.41,8.23.41,12.39A190.91,190.91,0,0,1,431.38,334.1Z" transform="translate(-47.3 -47.3)"/></svg>